<svg width="25" height="24" viewBox="0 0 25 24" fill="none" xmlns="http://www.w3.org/2000/svg">
<path d="M22.8531 16.8203L19.7231 9.50027C19.1531 8.16027 18.3031 7.40027 17.3331 7.35027C16.3731 7.30027 15.4431 7.97027 14.7331 9.25027L12.8331 12.6603C12.4331 13.3803 11.8631 13.8103 11.2431 13.8603C10.6131 13.9203 9.98315 13.5903 9.47315 12.9403L9.25315 12.6603C8.54315 11.7703 7.66315 11.3403 6.76315 11.4303C5.86315 11.5203 5.09315 12.1403 4.58315 13.1503L2.85315 16.6003C2.23315 17.8503 2.29315 19.3003 3.02315 20.4803C3.75315 21.6603 5.02315 22.3703 6.41315 22.3703H19.1731C20.5131 22.3703 21.7631 21.7003 22.5031 20.5803C23.2631 19.4603 23.3831 18.0503 22.8531 16.8203Z" fill="#F8F7F2"/>
<path d="M7.80334 8.38012C9.67006 8.38012 11.1833 6.86684 11.1833 5.00012C11.1833 3.13339 9.67006 1.62012 7.80334 1.62012C5.93662 1.62012 4.42334 3.13339 4.42334 5.00012C4.42334 6.86684 5.93662 8.38012 7.80334 8.38012Z" fill="#F8F7F2"/>
</svg>
