<svg width="25" height="24" viewBox="0 0 25 24" fill="none" xmlns="http://www.w3.org/2000/svg">
<path d="M21.4967 8.01002L14.9467 2.77002C13.6667 1.75002 11.6667 1.74002 10.3967 2.76002L3.84671 8.01002C2.90671 8.76002 2.33671 10.26 2.53671 11.44L3.79671 18.98C4.08671 20.67 5.65671 22 7.36671 22H17.9667C19.6567 22 21.2567 20.64 21.5467 18.97L22.8067 11.43C22.9867 10.26 22.4167 8.76002 21.4967 8.01002ZM13.4167 18C13.4167 18.41 13.0767 18.75 12.6667 18.75C12.2567 18.75 11.9167 18.41 11.9167 18V15C11.9167 14.59 12.2567 14.25 12.6667 14.25C13.0767 14.25 13.4167 14.59 13.4167 15V18Z" fill="#F8F7F2"/>
</svg>
